REM DIRINDEX 1\2,1\4,1\3\5,1\3\6,1\3\7
REM DIRNAME cjc082,folder01,folder02,folder03,folder04,folder05,folder06
TITLE ""
FILE "CD1Track43.mp3" MP3
  TRACK 01 AUDIO
    TITLE "0:"
    INDEX 01 00:00:00
  TRACK 02 AUDIO
    TITLE "5:cjc082_0768"
    INDEX 01 00:00:23
  TRACK 03 AUDIO
    TITLE "0:"
    INDEX 01 00:02:10
  TRACK 04 AUDIO
    TITLE "6:cjc082_0769"
    INDEX 01 00:02:59
  TRACK 05 AUDIO
    TITLE "0:"
    INDEX 01 00:04:03
  TRACK 06 AUDIO
    TITLE "5:cjc082_0770"
    INDEX 01 00:04:50
  TRACK 07 AUDIO
    TITLE "0:"
    INDEX 01 00:06:20
  TRACK 08 AUDIO
    TITLE "6:cjc082_0771"
    INDEX 01 00:06:73
  TRACK 09 AUDIO
    TITLE "0:"
    INDEX 01 00:09:20
  TRACK 10 AUDIO
    TITLE "5:cjc082_0772"
    INDEX 01 00:09:71
  TRACK 11 AUDIO
    TITLE "0:"
    INDEX 01 00:11:54
  TRACK 12 AUDIO
    TITLE "6:cjc082_0773"
    INDEX 01 00:12:28
  TRACK 13 AUDIO
    TITLE "0:"
    INDEX 01 00:13:65
  TRACK 14 AUDIO
    TITLE "5:cjc082_0774"
    INDEX 01 00:14:39
  TRACK 15 AUDIO
    TITLE "0:"
    INDEX 01 00:15:74
  TRACK 16 AUDIO
    TITLE "6:cjc082_0775"
    INDEX 01 00:16:49
  TRACK 17 AUDIO
    TITLE "0:"
    INDEX 01 00:18:01
  TRACK 18 AUDIO
    TITLE "5:cjc082_0776"
    INDEX 01 00:18:50
  TRACK 19 AUDIO
    TITLE "0:"
    INDEX 01 00:20:49
  TRACK 20 AUDIO
    TITLE "6:cjc082_0777"
    INDEX 01 00:21:19
  TRACK 21 AUDIO
    TITLE "0:"
    INDEX 01 00:22:56
  TRACK 22 AUDIO
    TITLE "5:cjc082_0778"
    INDEX 01 00:23:28
  TRACK 23 AUDIO
    TITLE "0:"
    INDEX 01 00:25:13
  TRACK 24 AUDIO
    TITLE "6:cjc082_0779"
    INDEX 01 00:25:64
  TRACK 25 AUDIO
    TITLE "0:"
    INDEX 01 00:27:43
  TRACK 26 AUDIO
    TITLE "5:cjc082_0780"
    INDEX 01 00:28:15
  TRACK 27 AUDIO
    TITLE "0:"
    INDEX 01 00:29:33
  TRACK 28 AUDIO
    TITLE "6:cjc082_0781"
    INDEX 01 00:30:03
  TRACK 29 AUDIO
    TITLE "0:"
    INDEX 01 00:31:41
  TRACK 30 AUDIO
    TITLE "5:cjc082_0782"
    INDEX 01 00:32:13
  TRACK 31 AUDIO
    TITLE "0:"
    INDEX 01 00:33:38
  TRACK 32 AUDIO
    TITLE "6:cjc082_0783"
    INDEX 01 00:34:18
  TRACK 33 AUDIO
    TITLE "0:"
    INDEX 01 00:35:53
  TRACK 34 AUDIO
    TITLE "5:cjc082_0784"
    INDEX 01 00:36:25
  TRACK 35 AUDIO
    TITLE "0:"
    INDEX 01 00:38:20
  TRACK 36 AUDIO
    TITLE "6:cjc082_0785"
    INDEX 01 00:38:67
  TRACK 37 AUDIO
    TITLE "0:"
    INDEX 01 00:40:46
  TRACK 38 AUDIO
    TITLE "5:cjc082_0786"
    INDEX 01 00:41:16
  TRACK 39 AUDIO
    TITLE "0:"
    INDEX 01 00:42:53
  TRACK 40 AUDIO
    TITLE "6:cjc082_0787"
    INDEX 01 00:43:27
  TRACK 41 AUDIO
    TITLE "0:"
    INDEX 01 00:45:53
  TRACK 42 AUDIO
    TITLE "5:cjc082_0788"
    INDEX 01 00:46:25
  TRACK 43 AUDIO
    TITLE "0:"
    INDEX 01 00:47:34
  TRACK 44 AUDIO
    TITLE "6:cjc082_0789"
    INDEX 01 00:48:06
  TRACK 45 AUDIO
    TITLE "0:"
    INDEX 01 00:49:14
  TRACK 46 AUDIO
    TITLE "5:cjc082_0790"
    INDEX 01 00:49:63
  TRACK 47 AUDIO
    TITLE "0:"
    INDEX 01 00:51:15
  TRACK 48 AUDIO
    TITLE "6:cjc082_0791"
    INDEX 01 00:51:62
  TRACK 49 AUDIO
    TITLE "0:"
    INDEX 01 00:53:15
  TRACK 50 AUDIO
    TITLE "5:cjc082_0792"
    INDEX 01 00:53:62
  TRACK 51 AUDIO
    TITLE "0:"
    INDEX 01 00:55:20
  TRACK 52 AUDIO
    TITLE "6:cjc082_0793"
    INDEX 01 00:55:71
  TRACK 53 AUDIO
    TITLE "0:"
    INDEX 01 00:57:11
  TRACK 54 AUDIO
    TITLE "5:cjc082_0794"
    INDEX 01 00:57:64
  TRACK 55 AUDIO
    TITLE "0:"
    INDEX 01 00:59:00
  TRACK 56 AUDIO
    TITLE "6:cjc082_0795"
    INDEX 01 00:59:49
  TRACK 57 AUDIO
    TITLE "0:"
    INDEX 01 01:00:60
  TRACK 58 AUDIO
    TITLE "5:cjc082_0796"
    INDEX 01 01:01:31
  TRACK 59 AUDIO
    TITLE "0:"
    INDEX 01 01:02:50
  TRACK 60 AUDIO
    TITLE "6:cjc082_0797"
    INDEX 01 01:03:27
  TRACK 61 AUDIO
    TITLE "0:"
    INDEX 01 01:04:56
  TRACK 62 AUDIO
    TITLE "7:cjc082_0798"
    INDEX 01 01:06:24
  TRACK 63 AUDIO
    TITLE "0:"
    INDEX 01 01:16:38
